PathFileType	4	(X/Y/Z)	/Users/itak/Documents/Research/Walk-IL/dataset/trc/00414_00012.trc
DataRate	CameraRate	NumFrames	NumMarkers	Units	OrigDataRate	OrigDataStartFrame	OrigNumFrames
100.000000	100.000000	4	53	mm	100.000000	0	433
Frame#	Time	RPSI			LPSI			L3			STRN			T10			C7			CLAV			RBAK			LBAK			LSHO			LUPA			LAEL			LAOL			LWTS			LWPS			LFRA			LIFD			LHPS			LHTS			RSHO			RUPA			RAEL			RAOL			RWTS			RWPS			RFRA			RIFD			RHTS			RHPS			RBHD			LFHD			RFHD			LBHD			LHIP			RHIP			RASI			LASI			LKNE			LTHI			LANK			LTIP			LTOE			LMT1			LMT5			LHEE			RKNE			RTHI			RANK			RTIP			RTOE			RMT1			RMT5			RHEE			
		X1	Y1	Z1	X2	Y2	Z2	X3	Y3	Z3	X4	Y4	Z4	X5	Y5	Z5	X6	Y6	Z6	X7	Y7	Z7	X8	Y8	Z8	X9	Y9	Z9	X10	Y10	Z10	X11	Y11	Z11	X12	Y12	Z12	X13	Y13	Z13	X14	Y14	Z14	X15	Y15	Z15	X16	Y16	Z16	X17	Y17	Z17	X18	Y18	Z18	X19	Y19	Z19	X20	Y20	Z20	X21	Y21	Z21	X22	Y22	Z22	X23	Y23	Z23	X24	Y24	Z24	X25	Y25	Z25	X26	Y26	Z26	X27	Y27	Z27	X28	Y28	Z28	X29	Y29	Z29	X30	Y30	Z30	X31	Y31	Z31	X32	Y32	Z32	X33	Y33	Z33	X34	Y34	Z34	X35	Y35	Z35	X36	Y36	Z36	X37	Y37	Z37	X38	Y38	Z38	X39	Y39	Z39	X40	Y40	Z40	X41	Y41	Z41	X42	Y42	Z42	X43	Y43	Z43	X44	Y44	Z44	X45	Y45	Z45	X46	Y46	Z46	X47	Y47	Z47	X48	Y48	Z48	X49	Y49	Z49	X50	Y50	Z50	X51	Y51	Z51	X52	Y52	Z52	X53	Y53	Z53	

1	0	-1380.27685546875	993.71728515625	-385.8462829589844	-1386.343872070312	985.38037109375	-517.2079467773438	-1383.446044921875	1058.530151367188	-450.1423950195312	-1149.714965820312	1212.585327148438	-447.5710754394531	-1392.904541015625	1161.837646484375	-455.2286071777344	-1359.18115234375	1411.164428710938	-467.00146484375	-1203.399658203125	1330.098510742188	-451.404052734375	-1401.281494140625	1264.605224609375	-398.9771118164062	-1366.656860351562	1371.791625976562	-572.6270751953125	-1275.628784179688	1384.867309570312	-616.4493408203125	-1284.145385742188	1266.714965820312	-686.6224975585938	-1247.210693359375	1068.679565429688	-700.4530639648438	-1315.185791015625	1046.977294921875	-654.2977294921875	-1158.553588867188	857.6610107421875	-622.5365600585938	-1186.579223632812	840.1279296875	-697.6128540039062	-1221.001220703125	964.9111938476562	-701.480712890625	-1148.047241210938	678.8123168945312	-621.0938110351562	-1168.487426757812	756.9799194335938	-683.8931274414062	-1129.830078125	763.3488159179688	-632.6652221679688	-1304.414184570312	1389.800415039062	-304.2026977539062	-1312.793334960938	1324.837890625	-243.9973449707031	-1288.894775390625	1061.143432617188	-207.4743499755859	-1317.858764648438	1053.709106445312	-296.4301147460938	-1158.715942382812	848.86474609375	-259.7592468261719	-1192.580810546875	834.6842651367188	-193.5207366943359	-1258.979614257812	996.4799194335938	-196.8965911865234	-1149.533325195312	675.9725952148438	-255.1222229003906	-1134.40576171875	743.2410278320312	-244.0979766845703	-1181.520751953125	749.3974609375	-192.8718566894531	-1336.3017578125	1600.417846679688	-397.9733276367188	-1158.829223632812	1604.849487304688	-490.4503173828125	-1205.409545898438	1614.521118164062	-376.6729431152344	-1292.604125976562	1585.162963867188	-553.8173217773438	-1300.62646484375	970.0319213867188	-630.9029541015625	-1296.570190429688	967.6212158203125	-272.1601867675781	-1164.795288085938	971.92041015625	-328.9973754882812	-1186.486694335938	964.8739013671875	-591.1868896484375	-1273.260131835938	474.7777404785156	-606.65380859375	-1273.472778320312	616.9486083984375	-618.8792114257812	-1359.05322265625	41.52640914916992	-551.742919921875	-1321.011474609375	245.0314178466797	-592.0748901367188	-1146.119140625	45.07524490356445	-494.4353942871094	-1222.827514648438	47.1397705078125	-461.0739135742188	-1233.260498046875	40.21572875976562	-567.1605224609375	-1395.966918945312	41.54433059692383	-494.1365356445312	-1274.4775390625	476.6760559082031	-291.8509521484375	-1227.27490234375	737.683349609375	-272.8694152832031	-1327.114624023438	57.34431457519531	-324.7875671386719	-1268.330810546875	350.6518859863281	-306.4786376953125	-1144.680908203125	41.3841552734375	-380.6761474609375	-1219.268920898438	44.87628936767578	-415.3295288085938	-1243.48828125	46.76145172119141	-316.2445678710938	-1398.423095703125	45.26497650146484	-380.7804870605469	
2	0.01	-1379.8447265625	993.7883911132812	-386.0033264160156	-1385.733642578125	985.4341430664062	-517.3305053710938	-1382.965576171875	1058.485473632812	-450.2992248535156	-1149.268798828125	1212.498657226562	-447.7091369628906	-1392.436645507812	1161.787963867188	-455.4124450683594	-1358.78125	1411.11328125	-467.1619873046875	-1202.993774414062	1330.02099609375	-451.4775390625	-1400.891357421875	1264.563842773438	-399.134521484375	-1366.225219726562	1371.7158203125	-572.7715454101562	-1275.255126953125	1384.791625976562	-616.5992431640625	-1283.767456054688	1266.601440429688	-686.7408447265625	-1246.777465820312	1068.598266601562	-700.5682983398438	-1314.749267578125	1046.876220703125	-654.3836669921875	-1157.948608398438	857.6038208007812	-622.7371215820312	-1186.176391601562	840.0558471679688	-697.7378540039062	-1220.568359375	964.817138671875	-701.6063842773438	-1147.543212890625	678.7372436523438	-621.1632690429688	-1168.016479492188	756.8944091796875	-684.0031127929688	-1129.399047851562	763.270751953125	-632.754150390625	-1304.00341796875	1389.76123046875	-304.3494567871094	-1312.48974609375	1324.801025390625	-244.1687622070312	-1288.637451171875	1061.087890625	-207.5774536132812	-1317.417114257812	1053.65185546875	-296.5477905273438	-1158.552001953125	848.654541015625	-259.5679626464844	-1192.65380859375	834.5354614257812	-193.4219818115234	-1258.83447265625	996.4485473632812	-196.9549102783203	-1149.746704101562	675.79150390625	-254.8581848144531	-1134.566772460938	743.0640258789062	-243.9020080566406	-1181.682373046875	749.247314453125	-192.6781768798828	-1336.85986328125	1599.999755859375	-398.30517578125	-1159.07861328125	1605.406982421875	-490.1498718261719	-1206.236572265625	1614.804565429688	-376.5302429199219	-1292.5244140625	1585.040649414062	-554.02685546875	-1300.073486328125	970.0065307617188	-631.011474609375	-1296.18408203125	967.6484375	-272.2689819335938	-1164.3701171875	971.795654296875	-329.0761108398438	-1185.955200195312	964.7772827148438	-591.3151245117188	-1273.276489257812	474.7709655761719	-606.78076171875	-1273.270751953125	616.9086303710938	-618.986572265625	-1359.05810546875	41.5201416015625	-551.7561645507812	-1320.998168945312	245.0229644775391	-592.1420288085938	-1146.120361328125	45.07494735717773	-494.4385681152344	-1222.798583984375	47.17607116699219	-461.0758666992188	-1233.257690429688	40.20781326293945	-567.1676025390625	-1395.95751953125	41.58113479614258	-494.1620788574219	-1274.469970703125	476.6789855957031	-291.8493041992188	-1227.341918945312	737.444091796875	-272.7112121582031	-1327.113403320312	57.36002731323242	-324.7921142578125	-1268.336791992188	350.6817932128906	-306.4716796875	-1144.677856445312	41.38163375854492	-380.6768493652344	-1219.265747070312	44.8798713684082	-415.3267211914062	-1243.484252929688	46.74686050415039	-316.2376708984375	-1398.423217773438	45.28110122680664	-380.7814025878906	
3	0.02	-1379.429931640625	993.8621215820312	-386.1647338867188	-1385.1640625	985.4962158203125	-517.4630737304688	-1382.497436523438	1058.449829101562	-450.4521789550781	-1148.84130859375	1212.419189453125	-447.8478393554688	-1392.00146484375	1161.749877929688	-455.5988159179688	-1358.38720703125	1411.071655273438	-467.3258666992188	-1202.607543945312	1329.958374023438	-451.525634765625	-1400.498901367188	1264.539794921875	-399.2813415527344	-1365.802490234375	1371.651123046875	-572.9188232421875	-1274.876831054688	1384.716064453125	-616.7427368164062	-1283.373413085938	1266.489501953125	-686.8517456054688	-1246.3583984375	1068.520385742188	-700.68505859375	-1314.307861328125	1046.78173828125	-654.4639282226562	-1157.401611328125	857.5394897460938	-622.9571533203125	-1185.779663085938	839.9837036132812	-697.863037109375	-1220.145874023438	964.726318359375	-701.7354125976562	-1147.054931640625	678.6512451171875	-621.2626953125	-1167.557250976562	756.8121337890625	-684.127685546875	-1129.027099609375	763.1629638671875	-632.8434448242188	-1303.58642578125	1389.731689453125	-304.4954528808594	-1312.15380859375	1324.771118164062	-244.3222351074219	-1288.34033203125	1061.047241210938	-207.6572113037109	-1317.0185546875	1053.607299804688	-296.6642150878906	-1158.5166015625	848.4298706054688	-259.3956909179688	-1192.738403320312	834.3971557617188	-193.3317718505859	-1258.693481445312	996.4204711914062	-197.0078735351562	-1150.0166015625	675.603515625	-254.6266021728516	-1134.708374023438	742.8934936523438	-243.7049407958984	-1181.826171875	749.1036376953125	-192.4834899902344	-1337.369262695312	1599.61083984375	-398.6434631347656	-1159.25244140625	1605.930908203125	-489.8670043945312	-1207.010131835938	1615.080444335938	-376.3792419433594	-1292.401123046875	1584.912841796875	-554.2431640625	-1299.509521484375	969.9840087890625	-631.109375	-1295.830322265625	967.6735229492188	-272.3816528320312	-1163.957397460938	971.6674194335938	-329.1422729492188	-1185.395263671875	964.6829223632812	-591.4201049804688	-1273.281494140625	474.7615051269531	-606.9032592773438	-1273.084716796875	616.872314453125	-619.0917358398438	-1359.065673828125	41.51039505004883	-551.7700805664062	-1320.985473632812	245.0137023925781	-592.208251953125	-1146.1220703125	45.07458877563477	-494.4417114257812	-1222.759155273438	47.22369003295898	-461.0811767578125	-1233.265625	40.2098274230957	-567.1799926757812	-1395.949829101562	41.61350250244141	-494.1892395019531	-1274.46533203125	476.6813354492188	-291.8504943847656	-1227.393798828125	737.2073974609375	-272.5576171875	-1327.11181640625	57.37277603149414	-324.7959289550781	-1268.321166992188	350.7210083007812	-306.4688415527344	-1144.6767578125	41.37984466552734	-380.6786193847656	-1219.264282226562	44.8842887878418	-415.3254089355469	-1243.478515625	46.73858261108398	-316.2324523925781	-1398.424682617188	45.29784393310547	-380.7835693359375	
4	0.03	-1379.03564453125	993.9367065429688	-386.3307800292969	-1384.646484375	985.5671997070312	-517.609375	-1382.039672851562	1058.423583984375	-450.5990600585938	-1148.442626953125	1212.34521484375	-447.9792785644531	-1391.585205078125	1161.7216796875	-455.7838439941406	-1357.997314453125	1411.0400390625	-467.4927062988281	-1202.236083984375	1329.907958984375	-451.5586242675781	-1400.109375	1264.532470703125	-399.4187927246094	-1365.383911132812	1371.597412109375	-573.0679321289062	-1274.482055664062	1384.642333984375	-616.8782958984375	-1282.951538085938	1266.386108398438	-686.9575805664062	-1245.955322265625	1068.445678710938	-700.804443359375	-1313.854370117188	1046.694458007812	-654.5380249023438	-1156.938842773438	857.4674072265625	-623.1788330078125	-1185.376953125	839.9118041992188	-697.9876708984375	-1219.729370117188	964.64013671875	-701.86572265625	-1146.573974609375	678.5549926757812	-621.3889770507812	-1167.109375	756.7333984375	-684.262451171875	-1128.68994140625	763.0337524414062	-632.9390869140625	-1303.1689453125	1389.711547851562	-304.6396484375	-1311.791015625	1324.748657226562	-244.4567413330078	-1288.014526367188	1061.02099609375	-207.7194213867188	-1316.663452148438	1053.574951171875	-296.7804565429688	-1158.677612304688	848.1752319335938	-259.2549133300781	-1192.827392578125	834.2736206054688	-193.2493591308594	-1258.551147460938	996.3943481445312	-197.0528564453125	-1150.361694335938	675.3997802734375	-254.4228973388672	-1134.835083007812	742.731689453125	-243.5091400146484	-1181.955322265625	748.968505859375	-192.2900543212891	-1337.832641601562	1599.254028320312	-398.9838256835938	-1159.357666015625	1606.424560546875	-489.6031494140625	-1207.716186523438	1615.346801757812	-376.2205810546875	-1292.2373046875	1584.779174804688	-554.463134765625	-1298.937377929688	969.9637451171875	-631.19970703125	-1295.501220703125	967.6947021484375	-272.4954528808594	-1163.562133789062	971.5338134765625	-329.1900329589844	-1184.828247070312	964.585693359375	-591.495849609375	-1273.2734375	474.7483215332031	-607.0176391601562	-1272.911376953125	616.839599609375	-619.1920776367188	-1359.07470703125	41.49715805053711	-551.7843017578125	-1320.973999023438	245.0047912597656	-592.2717895507812	-1146.125	45.07528686523438	-494.4461364746094	-1222.71875	47.27544021606445	-461.0890502929688	-1233.283447265625	40.22124481201172	-567.1967163085938	-1395.943725585938	41.63874053955078	-494.2151794433594	-1274.462158203125	476.6824951171875	-291.8550109863281	-1227.419921875	736.9857177734375	-272.4073791503906	-1327.110473632812	57.38296127319336	-324.7998657226562	-1268.288452148438	350.7646484375	-306.4718933105469	-1144.675903320312	41.37707901000977	-380.681396484375	-1219.263549804688	44.88837814331055	-415.3254089355469	-1243.471313476562	46.73733901977539	-316.2308959960938	-1398.426879882812	45.31574249267578	-380.7877502441406	
